<svg xmlns="http://www.w3.org/2000/svg" width="129.667" height="30" viewBox="0 0 129.667 30">
  <g id="Grupo_9" data-name="Grupo 9" transform="translate(-55 -85)">
    <path id="Caminho_1" data-name="Caminho 1" d="M121.9,443.77h-6.3L99.86,471.043h6.3l3.149-5.455h7.142v5.455H121.9Zm-5.455,9.447v6.916h-3.993Z" transform="translate(-44.86 -357.406)" fill="#fff" fill-rule="evenodd"/>
    <path id="Caminho_2" data-name="Caminho 2" d="M1346.92,443.77h5.455v18.409a3.419,3.419,0,0,0,3.409,3.409h0a3.419,3.419,0,0,0,3.409-3.409V443.77h5.454v18.409a8.89,8.89,0,0,1-8.864,8.864h0a8.89,8.89,0,0,1-8.864-8.864Z" transform="translate(-1250.785 -357.406)" fill="#fff" fill-rule="evenodd"/>
    <path id="Caminho_3" data-name="Caminho 3" d="M1931.135,454.679h5.455v5.455h-5.455v10.909h-5.455V443.77h12.273v5.455h-6.818Z" transform="translate(-1810.454 -357.406)" fill="#fff" fill-rule="evenodd"/>
    <path id="Caminho_4" data-name="Caminho 4" d="M2205.557,443.77h-6.3L2188.9,461.7V443.77h-6.3l-15.746,27.273h6.3l10.291-17.825v17.825h6.361l10.292-17.825v17.825h5.454Z" transform="translate(-2043.678 -357.406)" fill="#fff" fill-rule="evenodd"/>
    <path id="Caminho_5" data-name="Caminho 5" d="M3428.9,463.622a2.818,2.818,0,0,0-1.094-2.382,14.547,14.547,0,0,0-3.936-1.747,28,28,0,0,1-4.5-1.81q-4.515-2.444-4.514-6.585a6.419,6.419,0,0,1,1.212-3.837,7.879,7.879,0,0,1,3.476-2.637,13.156,13.156,0,0,1,5.093-.945,11.838,11.838,0,0,1,5.062,1.032,8.05,8.05,0,0,1,3.458,2.9,7.661,7.661,0,0,1,1.225,4.266h-5.459a3.58,3.58,0,0,0-1.15-2.829,4.732,4.732,0,0,0-3.227-1.007,5.053,5.053,0,0,0-3.115.846,2.68,2.68,0,0,0-1.107,2.238,2.575,2.575,0,0,0,1.3,2.17,14.891,14.891,0,0,0,3.837,1.635,16.617,16.617,0,0,1,6.8,3.482,6.942,6.942,0,0,1,2.126,5.174,6.378,6.378,0,0,1-2.605,5.4,11.389,11.389,0,0,1-7.008,1.959,13.56,13.56,0,0,1-5.577-1.119,8.857,8.857,0,0,1-3.837-3.072,7.9,7.9,0,0,1-1.318-4.52h5.484q0,4.384,5.248,4.384a5.109,5.109,0,0,0,3.041-.79A2.587,2.587,0,0,0,3428.9,463.622Z" transform="translate(-3249.708 -357.319)" fill="#fff"/>
    <path id="Caminho_6" data-name="Caminho 6" d="M768.16,432.43v-1.364h7.987a9.769,9.769,0,0,0,9.74-9.74v11.1Zm0-28.636V402.43h17.727v11.1a9.769,9.769,0,0,0-9.74-9.74H768.16Zm5.455,21.818h2.922a3.908,3.908,0,0,0,3.9-3.9v-8.571a3.908,3.908,0,0,0-3.9-3.9h-2.922Z" transform="translate(-691.115 -317.43)" fill="red" fill-rule="evenodd"/>
  </g>
</svg>
