<svg xmlns="http://www.w3.org/2000/svg" width="172.889" height="40" viewBox="0 0 172.889 40">
  <g id="Grupo_4" data-name="Grupo 4" transform="translate(-55 -85)">
    <path id="Caminho_1" data-name="Caminho 1" d="M129.253,443.77h-8.4L99.86,480.134h8.4l4.2-7.273h9.523v7.273h7.273Zm-7.273,12.6v9.222h-5.324Z" transform="translate(-44.86 -356.952)" fill="#222" fill-rule="evenodd"/>
    <path id="Caminho_2" data-name="Caminho 2" d="M1346.92,443.77h7.273v24.545a4.559,4.559,0,0,0,4.545,4.545h0a4.559,4.559,0,0,0,4.546-4.545V443.77h7.272v24.545a11.853,11.853,0,0,1-11.818,11.818h0a11.853,11.853,0,0,1-11.818-11.818Z" transform="translate(-1237.073 -356.952)" fill="#222" fill-rule="evenodd"/>
    <path id="Caminho_3" data-name="Caminho 3" d="M1932.953,458.315h7.273v7.273h-7.273v14.545h-7.273V443.77h16.364v7.273h-9.091Z" transform="translate(-1790.378 -356.952)" fill="#222" fill-rule="evenodd"/>
    <path id="Caminho_4" data-name="Caminho 4" d="M2218.456,443.77h-8.4l-13.806,23.913V443.77h-8.4l-20.995,36.364h8.4l13.722-23.767v23.767h8.482l13.723-23.767v23.767h7.272Z" transform="translate(-2020.951 -356.952)" fill="#222" fill-rule="evenodd"/>
    <path id="Caminho_5" data-name="Caminho 5" d="M3433.853,470.269a3.757,3.757,0,0,0-1.459-3.176,19.4,19.4,0,0,0-5.248-2.33,37.343,37.343,0,0,1-6-2.413q-6.019-3.258-6.019-8.78a8.557,8.557,0,0,1,1.616-5.115,10.5,10.5,0,0,1,4.635-3.515,17.541,17.541,0,0,1,6.79-1.26,15.784,15.784,0,0,1,6.749,1.376,10.733,10.733,0,0,1,4.61,3.872,10.215,10.215,0,0,1,1.633,5.688h-7.279a4.774,4.774,0,0,0-1.534-3.772,6.309,6.309,0,0,0-4.3-1.343,6.738,6.738,0,0,0-4.154,1.128,3.573,3.573,0,0,0-1.476,2.985,3.434,3.434,0,0,0,1.732,2.893,19.854,19.854,0,0,0,5.116,2.181q6.218,1.878,9.062,4.643a9.256,9.256,0,0,1,2.835,6.9,8.5,8.5,0,0,1-3.473,7.2q-3.471,2.612-9.344,2.612a18.081,18.081,0,0,1-7.437-1.492,11.809,11.809,0,0,1-5.116-4.1,10.536,10.536,0,0,1-1.758-6.027h7.313q0,5.845,7,5.845a6.812,6.812,0,0,0,4.054-1.053A3.449,3.449,0,0,0,3433.853,470.269Z" transform="translate(-3213.268 -356.866)" fill="#222"/>
    <path id="Caminho_6" data-name="Caminho 6" d="M768.16,442.43v-1.818h10.649A13.025,13.025,0,0,0,791.8,427.625v14.8Zm0-38.182V402.43H791.8v14.805a13.025,13.025,0,0,0-12.987-12.987H768.16Zm7.273,29.091h3.9a5.21,5.21,0,0,0,5.2-5.195V416.716a5.21,5.21,0,0,0-5.2-5.2h-3.9Z" transform="translate(-683.767 -317.43)" fill="red" fill-rule="evenodd"/>
  </g>
</svg>
